<?xml version="1.0" encoding="utf-8"?>
<!-- Generator: Adobe Illustrator 23.0.1, SVG Export Plug-In . SVG Version: 6.00 Build 0)  -->
<svg version="1.1" id="Layer_1" xmlns="http://www.w3.org/2000/svg" xmlns:xlink="http://www.w3.org/1999/xlink" x="0px" y="0px"
	 viewBox="0 0 248 68" style="enable-background:new 0 0 248 68;" xml:space="preserve">
<style type="text/css">
	.st0{clip-path:url(#SVGID_2_);fill:#0C50FE;}
	.st1{clip-path:url(#SVGID_4_);fill:#0C50FE;}
	.st2{clip-path:url(#SVGID_6_);fill:#0C50FE;}
	.st3{clip-path:url(#SVGID_8_);fill:#0C50FE;}
	.st4{clip-path:url(#SVGID_10_);fill:#0C50FE;}
	.st5{clip-path:url(#SVGID_12_);fill:#0C50FE;}
	.st6{clip-path:url(#SVGID_14_);fill:#0C50FE;}
	.st7{clip-path:url(#SVGID_16_);fill:#0C50FE;}
</style>
<g>
	<defs>
		<path id="SVGID_1_" d="M25.9,67.5c-7.7,0-13.8-2.7-18.3-7.9C2.6,53.5,0,45.1,0,34.5c0-7.7,1.2-14.1,3.5-19.1
			c2.3-4.9,5.3-8.7,9-11.1c3.7-2.4,8.2-3.6,13.4-3.6c7.6,0,13.9,2.9,18.6,8.6c4.8,5.8,7.2,14.1,7.2,24.8c0,10.8-2.6,19.4-7.7,25.4
			C39.7,64.8,33.6,67.5,25.9,67.5 M26,10.8c-5.5,0-10.1,1.9-13.5,5.7C9,20.3,7.2,26.2,7.2,34c0,7.7,1.8,13.6,5.4,17.4
			c3.6,3.9,8.1,5.9,13.4,5.9c5.3,0,9.8-2,13.3-5.8c3.5-3.9,5.3-9.8,5.3-17.7c0-7.7-1.7-13.6-5.1-17.3C36,12.7,31.5,10.8,26,10.8"/>
	</defs>
	<use xlink:href="#SVGID_1_"  style="overflow:visible;fill-rule:evenodd;clip-rule:evenodd;fill:#0C50FE;"/>
	<clipPath id="SVGID_2_">
		<use xlink:href="#SVGID_1_"  style="overflow:visible;"/>
	</clipPath>
	<rect x="-10" y="-9.4" class="st0" width="71.8" height="86.8"/>
</g>
<g>
	<defs>
		<rect id="SVGID_3_" x="84.6" y="19.9" width="9.3" height="46.5"/>
	</defs>
	<use xlink:href="#SVGID_3_"  style="overflow:visible;fill-rule:evenodd;clip-rule:evenodd;fill:#0C50FE;"/>
	<clipPath id="SVGID_4_">
		<use xlink:href="#SVGID_3_"  style="overflow:visible;"/>
	</clipPath>
	<rect x="74.6" y="9.9" class="st1" width="29.3" height="66.5"/>
</g>
<g>
	<defs>
		<path id="SVGID_5_" d="M118,67.5c-5.6,0-10-1.9-13.1-5.6c-3.7-4.4-5.5-10.6-5.5-18.5c0-7.8,1.9-14.1,5.6-18.8
			c3.1-3.9,7.1-5.8,12-5.8c5.4,0,9.8,2,12.8,6c3.6,4.6,5.4,11.5,5.4,20.6l0,0.8h-26.2l0,0.6c0.1,3.9,1,7,2.7,9.1
			c1.8,2.2,3.9,3.3,6.5,3.3c3.5,0,5.9-2.3,7.2-6.7l9.2,1.9c-1.4,4.3-3.4,7.6-6.1,9.7C125.6,66.4,122.1,67.5,118,67.5 M117.6,27.2
			c-2.4,0-4.4,1.1-6.1,3.2c-1.6,2.1-2.4,5-2.4,8.7l0,0.6H126l0-0.6c-0.1-3.8-0.9-6.8-2.5-8.8C121.8,28.3,119.9,27.2,117.6,27.2"/>
	</defs>
	<use xlink:href="#SVGID_5_"  style="overflow:visible;fill-rule:evenodd;clip-rule:evenodd;fill:#0C50FE;"/>
	<clipPath id="SVGID_6_">
		<use xlink:href="#SVGID_5_"  style="overflow:visible;"/>
	</clipPath>
	<rect x="89.4" y="8.8" class="st2" width="55.8" height="68.7"/>
</g>
<g>
	<defs>
		<path id="SVGID_7_" d="M165.9,66.4V42.6c0-5-0.2-8.2-0.6-9.9c-0.4-1.7-1.2-3.1-2.4-4.1c-1.2-1-2.5-1.4-4-1.4
			c-1.9,0-3.6,0.6-5.1,1.8c-1.5,1.2-2.6,2.9-3.2,5c-0.6,2-0.9,5.8-0.9,11.4v21h-9.3V19.9h8.5v8.4l1.1-1.7c1.7-2.6,3.6-4.6,5.7-5.9
			c2.1-1.3,4.4-1.9,6.9-1.9c2.9,0,5.4,0.8,7.4,2.2c2,1.5,3.4,3.4,4.2,5.8c0.8,2.4,1.2,5.9,1.2,10.5v29.1H165.9z"/>
	</defs>
	<use xlink:href="#SVGID_7_"  style="overflow:visible;fill-rule:evenodd;clip-rule:evenodd;fill:#0C50FE;"/>
	<clipPath id="SVGID_8_">
		<use xlink:href="#SVGID_7_"  style="overflow:visible;"/>
	</clipPath>
	<rect x="130.3" y="8.8" class="st3" width="54.9" height="67.6"/>
</g>
<g>
	<defs>
		<path id="SVGID_9_" d="M193.8,67.5c-2.5,0-4.5-0.6-6-1.8c-1.5-1.2-2.5-2.9-3-5.1c-0.4-1.7-0.6-5.2-0.6-10.5V28.8h-4.8v-8.9h4.8
			v-9.5l9.3-0.2v9.7h7.1v8.9h-7.1v19.8c0,5.7,0.2,7,0.3,7.4c0.5,1.5,1.6,2.2,3.2,2.2c0.9,0,2.1-0.3,3.7-0.9l0.8,8.6
			C199.2,66.9,196.6,67.5,193.8,67.5"/>
	</defs>
	<use xlink:href="#SVGID_9_"  style="overflow:visible;fill-rule:evenodd;clip-rule:evenodd;fill:#0C50FE;"/>
	<clipPath id="SVGID_10_">
		<use xlink:href="#SVGID_9_"  style="overflow:visible;"/>
	</clipPath>
	<rect x="169.3" y="0.2" class="st4" width="42.1" height="77.2"/>
</g>
<g>
	<defs>
		<rect id="SVGID_11_" x="207.5" y="19.9" width="9.3" height="46.5"/>
	</defs>
	<use xlink:href="#SVGID_11_"  style="overflow:visible;fill-rule:evenodd;clip-rule:evenodd;fill:#0C50FE;"/>
	<clipPath id="SVGID_12_">
		<use xlink:href="#SVGID_11_"  style="overflow:visible;"/>
	</clipPath>
	<rect x="197.5" y="9.9" class="st5" width="29.3" height="66.5"/>
</g>
<g>
	<defs>
		<path id="SVGID_13_" d="M56.2,66.4V19.9h8.5l0,8.4c1.5-3.1,2.3-4.4,4-6c3.9-3.8,9.7-2.7,11.7-1.2l-2.8,9.4
			c-1.6-1.1-3.1-1.7-4.6-1.7c-1.6,0-3,0.6-4.3,1.8c-1.2,1.2-2,3.2-2.6,6.1c-0.5,2.8-0.7,8-0.7,15.5v14.1H56.2z"/>
	</defs>
	<use xlink:href="#SVGID_13_"  style="overflow:visible;fill-rule:evenodd;clip-rule:evenodd;fill:#0C50FE;"/>
	<clipPath id="SVGID_14_">
		<use xlink:href="#SVGID_13_"  style="overflow:visible;"/>
	</clipPath>
	<rect x="46.2" y="9.7" class="st6" width="44.2" height="66.7"/>
</g>
<g>
	<defs>
		<path id="SVGID_15_" d="M223.7,66.4V19.9h8.5l0,8.4c1.5-3.1,2.3-4.4,4-6c3.9-3.8,9.7-2.7,11.7-1.2l-2.8,9.4
			c-1.6-1.1-3.1-1.7-4.6-1.7c-1.6,0-3,0.6-4.3,1.8c-1.2,1.2-2,3.2-2.6,6.1c-0.5,2.8-0.7,8-0.7,15.5v14.1H223.7z"/>
	</defs>
	<use xlink:href="#SVGID_15_"  style="overflow:visible;fill-rule:evenodd;clip-rule:evenodd;fill:#0C50FE;"/>
	<clipPath id="SVGID_16_">
		<use xlink:href="#SVGID_15_"  style="overflow:visible;"/>
	</clipPath>
	<rect x="213.7" y="9.7" class="st7" width="44.2" height="66.7"/>
</g>
</svg>
